<mxfile host="app.diagrams.net" modified="2023-01-10T02:59:33.947Z" agent="5.0 (Windows NT 10.0; Win64; x64) AppleWebKit/537.36 (KHTML, like Gecko) Chrome/108.0.0.0 Safari/537.36" version="20.8.3" etag="HaVTRd7O8qMJF83vQyyL" type="github">
  <diagram id="ySaa00MwmUOIAeSgSrXe" name="第 1 页">
    <mxGraphModel dx="1434" dy="764" grid="1" gridSize="10" guides="1" tooltips="1" connect="1" arrows="1" fold="1" page="1" pageScale="1" pageWidth="827" pageHeight="1169" math="0" shadow="0">
      <root>
        <mxCell id="0" />
        <mxCell id="1" parent="0" />
        <mxCell id="HUXK9qwuB7ezuotUVxXe-1" value="" style="rounded=0;whiteSpace=wrap;html=1;fontSize=18;" vertex="1" parent="1">
          <mxGeometry x="52" y="57" width="730" height="630" as="geometry" />
        </mxCell>
        <mxCell id="HUXK9qwuB7ezuotUVxXe-2" value="" style="rounded=0;whiteSpace=wrap;html=1;fontSize=18;" vertex="1" parent="1">
          <mxGeometry x="492" y="121" width="260" height="550" as="geometry" />
        </mxCell>
        <mxCell id="HUXK9qwuB7ezuotUVxXe-3" value="" style="rounded=0;whiteSpace=wrap;html=1;fontSize=18;" vertex="1" parent="1">
          <mxGeometry x="72" y="118" width="290" height="550" as="geometry" />
        </mxCell>
        <mxCell id="HUXK9qwuB7ezuotUVxXe-4" value="" style="edgeStyle=orthogonalEdgeStyle;rounded=0;orthogonalLoop=1;jettySize=auto;html=1;fontSize=18;" edge="1" parent="1" source="HUXK9qwuB7ezuotUVxXe-5" target="HUXK9qwuB7ezuotUVxXe-7">
          <mxGeometry relative="1" as="geometry" />
        </mxCell>
        <mxCell id="HUXK9qwuB7ezuotUVxXe-5" value="&lt;font style=&quot;font-size: 18px;&quot;&gt;公司网页&lt;/font&gt;" style="rounded=1;whiteSpace=wrap;html=1;" vertex="1" parent="1">
          <mxGeometry x="132" y="197" width="120" height="60" as="geometry" />
        </mxCell>
        <mxCell id="HUXK9qwuB7ezuotUVxXe-6" value="" style="edgeStyle=orthogonalEdgeStyle;rounded=0;orthogonalLoop=1;jettySize=auto;html=1;fontSize=18;" edge="1" parent="1" source="HUXK9qwuB7ezuotUVxXe-7">
          <mxGeometry relative="1" as="geometry">
            <mxPoint x="192" y="437" as="targetPoint" />
          </mxGeometry>
        </mxCell>
        <mxCell id="HUXK9qwuB7ezuotUVxXe-7" value="&lt;font style=&quot;font-size: 13px;&quot;&gt;网页中的元素及其位置信息保留&lt;/font&gt;" style="rounded=0;whiteSpace=wrap;html=1;" vertex="1" parent="1">
          <mxGeometry x="82" y="317" width="220" height="60" as="geometry" />
        </mxCell>
        <mxCell id="HUXK9qwuB7ezuotUVxXe-8" value="文字及其位置信息&lt;br&gt;预测ROI(region of interest)" style="shape=hexagon;perimeter=hexagonPerimeter2;whiteSpace=wrap;html=1;fixedSize=1;fontSize=13;" vertex="1" parent="1">
          <mxGeometry x="97" y="450" width="190" height="80" as="geometry" />
        </mxCell>
        <mxCell id="HUXK9qwuB7ezuotUVxXe-11" value="" style="edgeStyle=orthogonalEdgeStyle;rounded=0;orthogonalLoop=1;jettySize=auto;html=1;fontSize=18;" edge="1" parent="1" source="HUXK9qwuB7ezuotUVxXe-12" target="HUXK9qwuB7ezuotUVxXe-16">
          <mxGeometry relative="1" as="geometry" />
        </mxCell>
        <mxCell id="HUXK9qwuB7ezuotUVxXe-12" value="ROI(region of interest)&lt;br&gt;文字及其位置" style="rounded=1;whiteSpace=wrap;html=1;fontSize=13;" vertex="1" parent="1">
          <mxGeometry x="532" y="207" width="180" height="60" as="geometry" />
        </mxCell>
        <mxCell id="HUXK9qwuB7ezuotUVxXe-13" value="&lt;font style=&quot;font-size: 13px;&quot;&gt;step_1: 预测出感兴趣区域（信息框）&lt;/font&gt;" style="text;html=1;strokeColor=none;fillColor=none;align=center;verticalAlign=middle;whiteSpace=wrap;rounded=0;fontSize=13;" vertex="1" parent="1">
          <mxGeometry x="32" y="127" width="360" height="30" as="geometry" />
        </mxCell>
        <mxCell id="HUXK9qwuB7ezuotUVxXe-14" value="&lt;font style=&quot;font-size: 13px;&quot;&gt;step_2: 从ROI中抽取出信息&lt;/font&gt;" style="text;html=1;strokeColor=none;fillColor=none;align=center;verticalAlign=middle;whiteSpace=wrap;rounded=0;fontSize=13;" vertex="1" parent="1">
          <mxGeometry x="422" y="127" width="360" height="30" as="geometry" />
        </mxCell>
        <mxCell id="HUXK9qwuB7ezuotUVxXe-15" value="" style="edgeStyle=orthogonalEdgeStyle;rounded=0;orthogonalLoop=1;jettySize=auto;html=1;fontSize=18;" edge="1" parent="1" source="HUXK9qwuB7ezuotUVxXe-16" target="HUXK9qwuB7ezuotUVxXe-17">
          <mxGeometry relative="1" as="geometry" />
        </mxCell>
        <mxCell id="HUXK9qwuB7ezuotUVxXe-16" value="多模态信息抽取模型" style="shape=hexagon;perimeter=hexagonPerimeter2;whiteSpace=wrap;html=1;fixedSize=1;fontSize=13;" vertex="1" parent="1">
          <mxGeometry x="542" y="357" width="160" height="80" as="geometry" />
        </mxCell>
        <mxCell id="HUXK9qwuB7ezuotUVxXe-17" value="结构化的信息" style="rounded=1;whiteSpace=wrap;html=1;fontSize=13;" vertex="1" parent="1">
          <mxGeometry x="562" y="517" width="120" height="60" as="geometry" />
        </mxCell>
        <mxCell id="HUXK9qwuB7ezuotUVxXe-18" value="&lt;font style=&quot;font-size: 18px;&quot;&gt;方案2：文字及其位置&lt;/font&gt;" style="text;html=1;strokeColor=none;fillColor=none;align=center;verticalAlign=middle;whiteSpace=wrap;rounded=0;fontSize=13;" vertex="1" parent="1">
          <mxGeometry x="242" y="77" width="340" height="30" as="geometry" />
        </mxCell>
        <mxCell id="HUXK9qwuB7ezuotUVxXe-19" value="" style="curved=1;endArrow=classic;html=1;rounded=0;fontSize=18;exitX=1;exitY=0.5;exitDx=0;exitDy=0;entryX=0;entryY=0.5;entryDx=0;entryDy=0;" edge="1" parent="1" source="HUXK9qwuB7ezuotUVxXe-8" target="HUXK9qwuB7ezuotUVxXe-12">
          <mxGeometry width="50" height="50" relative="1" as="geometry">
            <mxPoint x="242" y="487" as="sourcePoint" />
            <mxPoint x="292" y="437" as="targetPoint" />
            <Array as="points">
              <mxPoint x="390" y="490" />
              <mxPoint x="420" y="460" />
              <mxPoint x="422" y="337" />
              <mxPoint x="422" y="287" />
              <mxPoint x="452" y="237" />
            </Array>
          </mxGeometry>
        </mxCell>
      </root>
    </mxGraphModel>
  </diagram>
</mxfile>
